<?xml version="1.0" standalone="no"?>
<!DOCTYPE svg PUBLIC "-//W3C//DTD SVG 20010904//EN"
 "http://www.w3.org/TR/2001/REC-SVG-20010904/DTD/svg10.dtd">
<svg version="1.0" xmlns="http://www.w3.org/2000/svg"
 width="260.000000pt" height="260.000000pt" viewBox="0 0 260.000000 260.000000"
 preserveAspectRatio="xMidYMid meet">
<metadata>
Created by potrace 1.11, written by Peter Selinger 2001-2013
</metadata>
<g transform="translate(0.000000,260.000000) scale(0.100000,-0.100000)"
fill="#000000" stroke="none">
<path d="M0 1300 l0 -1300 1300 0 1300 0 0 1300 0 1300 -1300 0 -1300 0 0
-1300z m1105 9 c110 -281 202 -515 203 -520 2 -5 -42 -9 -101 -9 l-105 0 -30
78 c-16 42 -32 87 -36 100 l-7 22 -239 0 -239 0 -7 -22 c-4 -13 -20 -58 -36
-100 l-30 -78 -105 0 c-59 0 -103 4 -101 9 2 5 93 239 203 520 l200 511 115 0
115 0 200 -511z m990 476 c74 -37 119 -93 136 -171 25 -110 -20 -221 -109
-271 l-48 -27 50 -25 c57 -29 108 -95 127 -164 26 -97 -18 -231 -94 -287 -75
-55 -110 -60 -434 -60 l-293 0 0 521 0 520 303 -3 302 -3 60 -30z"/>
<path d="M697 1387 c-48 -129 -87 -237 -87 -240 0 -4 81 -7 181 -7 140 0 180
3 177 13 -27 81 -174 467 -178 467 -3 0 -44 -105 -93 -233z"/>
<path d="M1610 1525 l0 -135 163 0 c190 0 232 12 260 73 34 72 10 147 -57 178
-34 16 -67 19 -203 19 l-163 0 0 -135z"/>
<path d="M1610 1084 l0 -146 184 4 c168 3 187 5 213 24 61 45 79 137 38 200
-34 52 -83 64 -267 64 l-168 0 0 -146z"/>
</g>
</svg>
